<svg xmlns="http://www.w3.org/2000/svg" width="1200" height="800" viewBox="0 0 1200 800" role="img" aria-label="Map placeholder">
  <defs>
    <linearGradient id="bg" x1="0" x2="1" y1="0" y2="1">
      <stop offset="0" stop-color="#efe6da"/>
      <stop offset="1" stop-color="#b7c8cf"/>
    </linearGradient>
  </defs>
  <rect width="1200" height="800" fill="url(#bg)"/>

  <!-- lake -->
  <path d="M820,90 C980,140 1080,260 1060,380 C1035,520 880,610 710,560 C560,516 510,360 570,240 C630,118 730,60 820,90 Z"
        fill="#7f9aa7" opacity="0.55"/>
  <path d="M820,120 C950,162 1025,256 1010,360 C992,480 880,545 755,508 C640,475 610,360 655,270 C702,180 750,98 820,120 Z"
        fill="#b7c8cf" opacity="0.35"/>

  <!-- roads -->
  <g fill="none" stroke="#1f1a14" opacity="0.20" stroke-width="16" stroke-linecap="round">
    <path d="M80,620 C220,520 330,470 460,430 C560,400 650,380 740,340 C860,286 960,210 1120,150"/>
    <path d="M120,180 C250,240 360,300 470,330 C610,370 710,430 820,520 C910,594 1010,640 1120,680"/>
  </g>
  <g fill="none" stroke="#ffffff" opacity="0.38" stroke-width="6" stroke-linecap="round">
    <path d="M80,620 C220,520 330,470 460,430 C560,400 650,380 740,340 C860,286 960,210 1120,150"/>
    <path d="M120,180 C250,240 360,300 470,330 C610,370 710,430 820,520 C910,594 1010,640 1120,680"/>
  </g>

  <!-- pins -->
  <g transform="translate(720 360)">
    <path d="M80,0 C40,0 8,32 8,72 C8,130 80,210 80,210 C80,210 152,130 152,72 C152,32 120,0 80,0 Z"
          fill="#b0825f" opacity="0.92"/>
    <circle cx="80" cy="72" r="32" fill="#ffffff" opacity="0.78"/>
    <circle cx="80" cy="72" r="16" fill="#1f1a14" opacity="0.20"/>
  </g>

  <!-- caption -->
  <g transform="translate(60 60)">
    <rect width="420" height="110" rx="26" fill="#ffffff" opacity="0.70"/>
    <text x="26" y="46" font-family="ui-serif, 'Hiragino Mincho ProN', 'Yu Mincho', serif" font-size="30" fill="#1f1a14" opacity="0.78">Access (demo)</text>
    <text x="26" y="82" font-family="ui-sans-serif, system-ui, -apple-system, 'Hiragino Sans', 'Yu Gothic', sans-serif" font-size="18" fill="#1f1a14" opacity="0.60">Replace with Google Maps embed</text>
  </g>
</svg>
