<svg xmlns="http://www.w3.org/2000/svg" width="1600" height="900" viewBox="0 0 1600 900" role="img" aria-label="Scene 1 sunset">
  <defs>
    <linearGradient id="sky" x1="0" x2="0" y1="0" y2="1">
      <stop offset="0" stop-color="#f7d9c4"/>
      <stop offset="0.55" stop-color="#efc19e"/>
      <stop offset="1" stop-color="#c7a58b"/>
    </linearGradient>
    <linearGradient id="lake" x1="0" x2="0" y1="0" y2="1">
      <stop offset="0" stop-color="#b7c8cf" stop-opacity="0.80"/>
      <stop offset="1" stop-color="#7f9aa7" stop-opacity="0.90"/>
    </linearGradient>
  </defs>
  <rect width="1600" height="900" fill="url(#sky)"/>
  <rect y="520" width="1600" height="380" fill="url(#lake)"/>
  <circle cx="260" cy="360" r="78" fill="#ffe1b7" opacity="0.85"/>
  <path d="M0,540 C280,480 430,550 640,520 C860,490 1060,530 1250,505 C1420,482 1520,500 1600,492 L1600,560 L0,560 Z"
        fill="#6e7a75" opacity="0.34"/>
  <!-- couple -->
  <g transform="translate(1050 560)" opacity="0.55" fill="#1f1a14">
    <circle cx="70" cy="70" r="26"/>
    <rect x="48" y="96" width="46" height="120" rx="18"/>
    <circle cx="170" cy="70" r="26"/>
    <rect x="148" y="96" width="46" height="120" rx="18"/>
    <rect x="20" y="216" width="230" height="44" rx="20" opacity="0.25"/>
  </g>
  <!-- grass -->
  <path d="M0,740 C260,680 420,820 650,760 C860,705 1040,828 1210,770 C1380,720 1500,810 1600,780 L1600,900 L0,900 Z"
        fill="#6b6c55" opacity="0.45"/>
  <rect width="1600" height="900" fill="#ffffff" opacity="0.10"/>
</svg>
