<svg xmlns="http://www.w3.org/2000/svg" width="1600" height="900" viewBox="0 0 1600 900" role="img" aria-label="Scene 3 morning walk">
  <defs>
    <linearGradient id="sky" x1="0" x2="0" y1="0" y2="1">
      <stop offset="0" stop-color="#f5efe6"/>
      <stop offset="0.55" stop-color="#e9dbc9"/>
      <stop offset="1" stop-color="#b9cdd2"/>
    </linearGradient>
  </defs>
  <rect width="1600" height="900" fill="url(#sky)"/>
  <rect y="540" width="1600" height="360" fill="#93aeb9" opacity="0.55"/>
  <path d="M0,560 C240,520 380,585 610,548 C820,514 1060,575 1260,545 C1440,520 1520,530 1600,522 L1600,585 L0,585 Z"
        fill="#6e7a75" opacity="0.30"/>
  <!-- path -->
  <path d="M0,900 C180,820 320,760 460,700 C640,620 880,560 1120,520 C1300,490 1460,490 1600,500 L1600,900 Z"
        fill="#d8c7b6" opacity="0.55"/>
  <!-- walker -->
  <g transform="translate(920 560)" opacity="0.55" fill="#1f1a14">
    <circle cx="80" cy="60" r="24"/>
    <rect x="60" y="82" width="42" height="118" rx="16"/>
    <rect x="46" y="190" width="32" height="90" rx="14"/>
    <rect x="86" y="190" width="32" height="90" rx="14"/>
  </g>
  <!-- dog -->
  <g transform="translate(1050 700)" opacity="0.55" fill="#1f1a14">
    <ellipse cx="80" cy="56" rx="44" ry="30"/>
    <circle cx="120" cy="42" r="20"/>
    <rect x="52" y="80" width="22" height="70" rx="10"/>
    <rect x="92" y="80" width="22" height="70" rx="10"/>
    <path d="M140,52 C160,60 164,72 150,90" fill="none" stroke="#1f1a14" stroke-width="10" stroke-linecap="round"/>
  </g>
  <!-- grass -->
  <path d="M0,730 C260,660 420,820 650,760 C860,705 1040,828 1210,770 C1380,720 1500,810 1600,780 L1600,900 L0,900 Z"
        fill="#6b6c55" opacity="0.42"/>
  <rect width="1600" height="900" fill="#ffffff" opacity="0.10"/>
</svg>
