<svg xmlns="http://www.w3.org/2000/svg" width="1600" height="900" viewBox="0 0 1600 900" role="img" aria-label="Scene 2 bonfire">
  <defs>
    <radialGradient id="night" cx="50%" cy="35%" r="75%">
      <stop offset="0" stop-color="#2d3840"/>
      <stop offset="1" stop-color="#141416"/>
    </radialGradient>
    <radialGradient id="fire" cx="50%" cy="55%" r="60%">
      <stop offset="0" stop-color="#ffe7b9" stop-opacity="0.95"/>
      <stop offset="0.45" stop-color="#f0b56d" stop-opacity="0.85"/>
      <stop offset="1" stop-color="#b0825f" stop-opacity="0.18"/>
    </radialGradient>
  </defs>
  <rect width="1600" height="900" fill="url(#night)"/>
  <!-- stars -->
  <g fill="#ffffff" opacity="0.45">
    <circle cx="160" cy="140" r="2"/>
    <circle cx="320" cy="220" r="1.8"/>
    <circle cx="520" cy="120" r="1.6"/>
    <circle cx="960" cy="170" r="2.2"/>
    <circle cx="1120" cy="120" r="1.8"/>
    <circle cx="1360" cy="210" r="2.0"/>
  </g>
  <!-- ground -->
  <path d="M0,640 C260,560 420,700 650,650 C860,590 1040,740 1210,675 C1380,620 1500,710 1600,680 L1600,900 L0,900 Z"
        fill="#1b1a15" opacity="0.95"/>
  <!-- fire glow -->
  <circle cx="820" cy="620" r="220" fill="url(#fire)"/>
  <!-- fire -->
  <g transform="translate(760 540)">
    <path d="M60,220 C30,185 55,150 74,130 C92,110 88,80 110,50 C130,20 174,30 186,70 C196,110 228,122 230,162 C232,210 195,240 150,250 C110,258 82,246 60,220 Z"
          fill="#f4b06a" opacity="0.95"/>
    <path d="M112,220 C94,198 102,174 112,162 C122,148 118,126 132,110 C146,94 174,100 182,126 C190,154 206,160 206,186 C206,214 188,232 164,238 C140,244 124,236 112,220 Z"
          fill="#ffe7b9" opacity="0.85"/>
    <rect x="82" y="250" width="160" height="26" rx="13" fill="#2a2a2a" opacity="0.40"/>
    <rect x="70" y="266" width="190" height="18" rx="9" fill="#2a2a2a" opacity="0.28"/>
  </g>
  <!-- silhouettes -->
  <g transform="translate(430 610)" fill="#0b0b0c" opacity="0.55">
    <circle cx="60" cy="40" r="20"/>
    <rect x="42" y="60" width="38" height="110" rx="16"/>
    <circle cx="200" cy="40" r="20"/>
    <rect x="182" y="60" width="38" height="110" rx="16"/>
    <rect x="12" y="168" width="250" height="44" rx="20" opacity="0.30"/>
  </g>
</svg>
