<svg xmlns="http://www.w3.org/2000/svg" width="960" height="600" viewBox="0 0 960 600" role="img" aria-label="Site 3 image">
  <defs>
    <linearGradient id="g" x1="0" x2="0" y1="0" y2="1">
      <stop offset="0" stop-color="#f2d3bc"/>
      <stop offset="0.55" stop-color="#e9dbc9"/>
      <stop offset="1" stop-color="#a8bfc7"/>
    </linearGradient>
  </defs>
  <rect width="960" height="600" fill="url(#g)"/>
  <rect y="360" width="960" height="240" fill="#819ca9" opacity="0.55"/>
  <!-- Trees -->
  <g opacity="0.35">
    <rect x="720" y="210" width="26" height="220" rx="10" fill="#2f3c44"/>
    <circle cx="733" cy="190" r="80" fill="#2f3c44"/>
    <rect x="820" y="250" width="18" height="180" rx="9" fill="#2f3c44"/>
    <circle cx="829" cy="236" r="52" fill="#2f3c44"/>
  </g>
  <path d="M0,400 C200,330 320,450 520,390 C680,342 820,430 960,382 L960,600 L0,600 Z"
        fill="#6b6c55" opacity="0.40"/>
  <!-- RV (smaller) -->
  <g transform="translate(160 280)" opacity="0.92">
    <rect x="0" y="52" width="360" height="120" rx="20" fill="#ffffff" opacity="0.82"/>
    <rect x="22" y="72" width="130" height="56" rx="12" fill="#2f3c44" opacity="0.20"/>
    <rect x="168" y="78" width="130" height="44" rx="12" fill="#2f3c44" opacity="0.16"/>
    <circle cx="100" cy="190" r="18" fill="#2a2a2a" opacity="0.42"/>
    <circle cx="270" cy="190" r="18" fill="#2a2a2a" opacity="0.42"/>
  </g>
  <!-- Quiet badge -->
  <g transform="translate(650 420)">
    <rect width="230" height="64" rx="20" fill="#ffffff" opacity="0.55"/>
    <text x="22" y="42" font-family="ui-sans-serif, system-ui, -apple-system, 'Hiragino Sans', 'Yu Gothic', sans-serif" font-size="22" fill="#1f1a14" opacity="0.72">Quiet corner area</text>
  </g>
</svg>
