<svg xmlns="http://www.w3.org/2000/svg" width="960" height="600" viewBox="0 0 960 600" role="img" aria-label="Site 2 image">
  <defs>
    <linearGradient id="g" x1="0" x2="0" y1="0" y2="1">
      <stop offset="0" stop-color="#f5dcc7"/>
      <stop offset="0.50" stop-color="#efe6da"/>
      <stop offset="1" stop-color="#b8c9cf"/>
    </linearGradient>
  </defs>
  <rect width="960" height="600" fill="url(#g)"/>
  <rect y="360" width="960" height="240" fill="#8aa5b2" opacity="0.55"/>
  <path d="M0,398 C180,335 310,430 520,384 C690,347 820,430 960,388 L960,600 L0,600 Z"
        fill="#6b6c55" opacity="0.42"/>
  <!-- Wider pad -->
  <rect x="80" y="420" width="800" height="140" rx="26" fill="#ffffff" opacity="0.18"/>
  <!-- RV -->
  <g transform="translate(210 260)" opacity="0.92">
    <rect x="0" y="40" width="520" height="150" rx="22" fill="#ffffff" opacity="0.82"/>
    <rect x="30" y="62" width="210" height="70" rx="12" fill="#2f3c44" opacity="0.22"/>
    <rect x="255" y="72" width="190" height="52" rx="12" fill="#2f3c44" opacity="0.18"/>
    <rect x="428" y="28" width="86" height="74" rx="18" fill="#ffffff" opacity="0.65"/>
    <circle cx="135" cy="204" r="20" fill="#2a2a2a" opacity="0.42"/>
    <circle cx="400" cy="204" r="20" fill="#2a2a2a" opacity="0.42"/>
  </g>
  <!-- Table & chairs -->
  <g transform="translate(120 320)" opacity="0.35">
    <rect x="0" y="0" width="120" height="54" rx="16" fill="#2f3c44"/>
    <rect x="-20" y="70" width="64" height="42" rx="14" fill="#2f3c44"/>
    <rect x="76" y="70" width="64" height="42" rx="14" fill="#2f3c44"/>
  </g>
</svg>
