<svg xmlns="http://www.w3.org/2000/svg" width="960" height="600" viewBox="0 0 960 600" role="img" aria-label="Site 1 image">
  <defs>
    <linearGradient id="g" x1="0" x2="0" y1="0" y2="1">
      <stop offset="0" stop-color="#f3d2b9"/>
      <stop offset="0.55" stop-color="#edd7c6"/>
      <stop offset="1" stop-color="#c9d6d9"/>
    </linearGradient>
  </defs>
  <rect width="960" height="600" fill="url(#g)"/>
  <rect y="360" width="960" height="240" fill="#9db1b7" opacity="0.55"/>
  <path d="M0,380 C160,330 260,410 420,370 C590,327 690,410 860,370 C910,358 935,352 960,355 L960,600 L0,600 Z"
        fill="#6c6d56" opacity="0.45"/>
  <!-- RV -->
  <g transform="translate(170 260)" opacity="0.92">
    <rect x="0" y="40" width="420" height="150" rx="20" fill="#ffffff" opacity="0.85"/>
    <rect x="26" y="62" width="170" height="70" rx="12" fill="#2f3c44" opacity="0.25"/>
    <rect x="210" y="70" width="150" height="55" rx="12" fill="#2f3c44" opacity="0.20"/>
    <rect x="340" y="30" width="70" height="70" rx="18" fill="#ffffff" opacity="0.70"/>
    <circle cx="110" cy="204" r="20" fill="#2a2a2a" opacity="0.45"/>
    <circle cx="330" cy="204" r="20" fill="#2a2a2a" opacity="0.45"/>
  </g>
  <!-- Site marker -->
  <g transform="translate(690 170)" opacity="0.9">
    <rect x="0" y="0" width="200" height="150" rx="22" fill="#ffffff" opacity="0.70"/>
    <path d="M18,110 C42,80 78,96 102,70 C126,44 160,56 182,34" fill="none" stroke="#b0825f" stroke-width="6" stroke-linecap="round" opacity="0.8"/>
    <circle cx="62" cy="92" r="10" fill="#b0825f" opacity="0.85"/>
  </g>
</svg>
